# Blender v2.77 (sub 0) OBJ File: 'ProofOfConcept1.blend'
# www.blender.org
mtllib Player1.mtl.mtl
o Player_Yellow_Circle.002
v 0.000000 0.276184 0.000000
v 0.000000 0.276184 0.221047
v 0.043124 0.276184 0.216799
v 0.084591 0.276184 0.204220
v 0.122807 0.276181 0.183793
v 0.156303 0.276184 0.156303
v 0.183793 0.276181 0.122807
v 0.204220 0.276184 0.084591
v 0.216799 0.276184 0.043124
v 0.221047 0.276184 0.000000
v 0.216799 0.276181 -0.043124
v 0.204220 0.276184 -0.084591
v 0.183793 0.276184 -0.122807
v 0.156303 0.276184 -0.156303
v 0.122807 0.276181 -0.183793
v 0.084591 0.276181 -0.204220
v 0.043124 0.276184 -0.216799
v -0.000000 0.276181 -0.221047
v -0.043124 0.276181 -0.216799
v -0.084591 0.276184 -0.204220
v -0.122807 0.276181 -0.183793
v -0.156304 0.276181 -0.156303
v -0.183794 0.276184 -0.122807
v -0.204220 0.276181 -0.084591
v -0.216799 0.276181 -0.043124
v -0.221047 0.276181 0.000000
v -0.216799 0.276184 0.043124
v -0.204220 0.276181 0.084591
v -0.183793 0.276181 0.122807
v -0.156303 0.276184 0.156304
v -0.122807 0.276184 0.183794
v -0.084591 0.276184 0.204220
v -0.043124 0.276184 0.216799
v 0.000000 0.000000 0.000000
v 0.000000 0.000000 0.221047
v 0.043124 0.000000 0.216799
v 0.084591 0.000000 0.204220
v 0.122807 0.000000 0.183793
v 0.156303 0.000000 0.156303
v 0.183793 0.000000 0.122807
v 0.204220 0.000000 0.084591
v 0.216799 0.000000 0.043124
v 0.221047 0.000000 0.000000
v 0.216799 0.000000 -0.043124
v 0.204220 0.000000 -0.084591
v 0.183793 0.000000 -0.122807
v 0.156303 0.000000 -0.156303
v 0.122807 0.000000 -0.183793
v 0.084591 0.000000 -0.204220
v 0.043124 0.000000 -0.216799
v -0.000000 0.000000 -0.221047
v -0.043124 0.000000 -0.216799
v -0.084591 0.000000 -0.204220
v -0.122807 0.000000 -0.183793
v -0.156304 0.000000 -0.156303
v -0.183794 0.000000 -0.122807
v -0.204220 0.000000 -0.084591
v -0.216799 0.000000 -0.043124
v -0.221047 0.000000 0.000000
v -0.216799 0.000000 0.043124
v -0.204220 0.000000 0.084591
v -0.183793 0.000000 0.122807
v -0.156303 0.000000 0.156304
v -0.122807 0.000000 0.183794
v -0.084591 0.000000 0.204220
v -0.043124 0.000000 0.216799
vn 0.0000 1.0000 0.0000
vn 0.0001 1.0000 -0.0000
vn -0.0001 1.0000 0.0001
vn 0.0001 1.0000 -0.0001
vn -0.0000 1.0000 0.0001
vn 0.0000 1.0000 -0.0001
vn -0.0001 1.0000 -0.0001
vn -0.0001 1.0000 -0.0000
vn 0.0000 -1.0000 0.0000
vn 0.0980 0.0000 0.9952
vn 0.2903 0.0000 0.9569
vn 0.4714 0.0000 0.8819
vn 0.6344 0.0000 0.7730
vn 0.7730 0.0000 0.6344
vn 0.8819 0.0000 0.4714
vn 0.9569 0.0000 0.2903
vn 0.9952 0.0000 0.0980
vn 0.9952 0.0000 -0.0980
vn 0.9569 0.0000 -0.2903
vn 0.8819 0.0000 -0.4714
vn 0.7730 0.0000 -0.6344
vn 0.6344 0.0000 -0.7730
vn 0.4714 0.0000 -0.8819
vn 0.2903 0.0000 -0.9569
vn 0.0980 0.0000 -0.9952
vn -0.0980 0.0000 -0.9952
vn -0.2903 0.0000 -0.9569
vn -0.4714 0.0000 -0.8819
vn -0.6344 0.0000 -0.7730
vn -0.7730 0.0000 -0.6344
vn -0.8819 0.0000 -0.4714
vn -0.9569 0.0000 -0.2903
vn -0.9952 0.0000 -0.0980
vn -0.9952 0.0000 0.0980
vn -0.9569 0.0000 0.2903
vn -0.8819 0.0000 0.4714
vn -0.7730 0.0000 0.6344
vn -0.6344 0.0000 0.7730
vn -0.4714 0.0000 0.8819
vn -0.2903 0.0000 0.9569
vn -0.0980 0.0000 0.9952
usemtl Player4
s off
f 1//1 2//1 3//1
f 1//1 3//1 4//1
f 1//2 4//2 5//2
f 1//3 5//3 6//3
f 1//4 6//4 7//4
f 1//5 7//5 8//5
f 1//1 8//1 9//1
f 1//1 9//1 10//1
f 1//6 10//6 11//6
f 1//5 11//5 12//5
f 1//1 12//1 13//1
f 1//1 13//1 14//1
f 1//7 14//7 15//7
f 1//1 15//1 16//1
f 1//2 16//2 17//2
f 1//8 17//8 18//8
f 1//1 18//1 19//1
f 1//2 19//2 20//2
f 1//8 20//8 21//8
f 1//1 21//1 22//1
f 1//6 22//6 23//6
f 1//5 23//5 24//5
f 1//1 24//1 25//1
f 1//1 25//1 26//1
f 1//6 26//6 27//6
f 1//5 27//5 28//5
f 1//1 28//1 29//1
f 1//7 29//7 30//7
f 1//1 30//1 31//1
f 1//1 31//1 32//1
f 1//1 32//1 33//1
f 1//1 33//1 2//1
f 36//9 35//9 34//9
f 37//9 36//9 34//9
f 38//9 37//9 34//9
f 39//9 38//9 34//9
f 40//9 39//9 34//9
f 41//9 40//9 34//9
f 42//9 41//9 34//9
f 43//9 42//9 34//9
f 44//9 43//9 34//9
f 45//9 44//9 34//9
f 46//9 45//9 34//9
f 47//9 46//9 34//9
f 48//9 47//9 34//9
f 49//9 48//9 34//9
f 50//9 49//9 34//9
f 51//9 50//9 34//9
f 52//9 51//9 34//9
f 53//9 52//9 34//9
f 54//9 53//9 34//9
f 55//9 54//9 34//9
f 56//9 55//9 34//9
f 57//9 56//9 34//9
f 58//9 57//9 34//9
f 59//9 58//9 34//9
f 60//9 59//9 34//9
f 61//9 60//9 34//9
f 62//9 61//9 34//9
f 63//9 62//9 34//9
f 64//9 63//9 34//9
f 65//9 64//9 34//9
f 66//9 65//9 34//9
f 35//9 66//9 34//9
f 3//10 2//10 35//10 36//10
f 4//11 3//11 36//11 37//11
f 5//12 4//12 37//12 38//12
f 6//13 5//13 38//13 39//13
f 7//14 6//14 39//14 40//14
f 8//15 7//15 40//15 41//15
f 9//16 8//16 41//16 42//16
f 10//17 9//17 42//17 43//17
f 11//18 10//18 43//18 44//18
f 12//19 11//19 44//19 45//19
f 13//20 12//20 45//20 46//20
f 14//21 13//21 46//21 47//21
f 15//22 14//22 47//22 48//22
f 16//23 15//23 48//23 49//23
f 17//24 16//24 49//24 50//24
f 18//25 17//25 50//25 51//25
f 19//26 18//26 51//26 52//26
f 20//27 19//27 52//27 53//27
f 21//28 20//28 53//28 54//28
f 22//29 21//29 54//29 55//29
f 23//30 22//30 55//30 56//30
f 24//31 23//31 56//31 57//31
f 25//32 24//32 57//32 58//32
f 26//33 25//33 58//33 59//33
f 27//34 26//34 59//34 60//34
f 28//35 27//35 60//35 61//35
f 29//36 28//36 61//36 62//36
f 30//37 29//37 62//37 63//37
f 31//38 30//38 63//38 64//38
f 32//39 31//39 64//39 65//39
f 33//40 32//40 65//40 66//40
f 2//41 33//41 66//41 35//41
